<?xml version="1.0" encoding="utf-8"?>
<!-- Generator: Adobe Illustrator 21.0.0, SVG Export Plug-In . SVG Version: 6.00 Build 0)  -->
<svg version="1.1" id="Layer_1" xmlns="http://www.w3.org/2000/svg" xmlns:xlink="http://www.w3.org/1999/xlink" x="0px" y="0px"
	 viewBox="0 0 100 100" style="enable-background:new 0 0 100 100;" xml:space="preserve">
<style type="text/css">
	.st0{fill:#F2E6DE;stroke:#333333;stroke-width:2;stroke-linecap:round;stroke-linejoin:round;stroke-miterlimit:10;}
	.st1{fill:#FCD3C9;stroke:#333333;stroke-width:2;stroke-linecap:round;stroke-linejoin:round;stroke-miterlimit:10;}
	.st2{fill:#68A2F1;stroke:#333333;stroke-width:2;stroke-linecap:round;stroke-linejoin:round;stroke-miterlimit:10;}
	.st3{fill:#6199DB;}
	.st4{fill:#EAC5BD;}
	.st5{fill:#333333;stroke:#333333;stroke-width:2;stroke-linecap:round;stroke-linejoin:round;stroke-miterlimit:10;}
	.st6{fill:none;stroke:#333333;stroke-width:2;stroke-linecap:round;stroke-linejoin:round;stroke-miterlimit:10;}
</style>
<path class="st0" d="M97.6,50c0,26.3-21.3,47.6-47.6,47.6C23.7,97.6,2.4,76.3,2.4,50C2.4,23.7,23.7,2.4,50,2.4
	C76.3,2.4,97.6,23.7,97.6,50z"/>
<path class="st1" d="M66.6,41.4l-2.8,2.8L61.2,36C55,42.2,45,42.2,38.8,36v0l-2.6,8.2l-2.8-2.8v0c-2.2,0.8-3.7,2.8-3.7,5.2
	c0,4.7,2.4,8.6,5.4,8.7c2.8,8.5,8.4,14.3,14.9,14.3c6.5,0,12.1-5.8,14.9-14.3c3-0.1,5.4-4,5.4-8.7C70.3,44.2,68.7,42.2,66.6,41.4z"
	/>
<path class="st1" d="M58.1,74.8c-1.3-1.3-2.1-3.1-2.1-5.1V68c-1.8,1.1-3.9,1.7-6,1.7c-2.1,0-4.1-0.6-6-1.7v1.7c0,2-0.8,3.8-2.1,5.1
	c-0.7,0.7-1.4,1.2-2.3,1.6c5.7,5.7,15,5.7,20.8,0C59.5,76,58.7,75.4,58.1,74.8z"/>
<path class="st2" d="M60.4,76.3c-5.7,5.7-15,5.7-20.8,0L18,85.3c5.8,5.3,12.9,9.1,20.8,11c3.6,0.9,7.3,1.3,11.2,1.3
	s7.6-0.5,11.2-1.3c7.9-1.9,15-5.7,20.8-11L60.4,76.3z"/>
<path class="st3" d="M78.6,88.1L56.7,79c1.3-0.7,2.6-1.6,3.7-2.7L82,85.3C80.9,86.3,79.8,87.2,78.6,88.1z"/>
<path class="st4" d="M36.3,43.9l-0.1,0.3l-2.8-2.8v0c-2.2,0.8-3.7,2.8-3.7,5.2c0,4.7,2.4,8.6,5.4,8.7c2.8,8.5,8.4,14.3,14.9,14.3
	c0.8,0,1.6-0.1,2.3-0.3C43.9,67.7,37.3,57.2,36.3,43.9z"/>
<path class="st5" d="M56.8,22l-2.3,0c1.4-1.4,2.3-3.4,2.3-5.6c-3.5,3.5-8.3,5.6-13.5,5.6l0,0c-5.4,0-9.8,4.4-9.8,9.8v9.6l2.8,2.8
	l2.6-8.2v0c6.2,6.2,16.2,6.2,22.4,0l0,0l2.6,8.2l2.8-2.8v-9.6C66.6,26.4,62.2,22,56.8,22z"/>
<path class="st6" d="M66.6,41.4l-2.8,2.8L61.2,36C55,42.2,45,42.2,38.8,36v0l-2.6,8.2l-2.8-2.8v0c-2.2,0.8-3.7,2.8-3.7,5.2
	c0,4.7,2.4,8.6,5.4,8.7c2.8,8.5,8.4,14.3,14.9,14.3c6.5,0,12.1-5.8,14.9-14.3c3-0.1,5.4-4,5.4-8.7C70.3,44.2,68.7,42.2,66.6,41.4z"
	/>
<path class="st6" d="M60.4,76.3c-5.7,5.7-15,5.7-20.8,0L18,85.3c5.8,5.3,12.9,9.1,20.8,11c3.6,0.9,7.3,1.3,11.2,1.3
	s7.6-0.5,11.2-1.3c7.9-1.9,15-5.7,20.8-11L60.4,76.3z"/>
<path class="st4" d="M43.6,72.3c2,1.1,4.2,1.6,6.4,1.6s4.4-0.6,6.4-1.6c-0.3-0.8-0.5-1.7-0.5-2.6V68c-1.8,1.1-3.9,1.7-6,1.7
	c-2.1,0-4.1-0.6-6-1.7v1.7C44,70.6,43.9,71.5,43.6,72.3z"/>
<path class="st6" d="M58.1,74.8c-1.3-1.3-2.1-3.1-2.1-5.1V68c-1.8,1.1-3.9,1.7-6,1.7c-2.1,0-4.1-0.6-6-1.7v1.7c0,2-0.8,3.8-2.1,5.1
	c-0.7,0.7-1.4,1.2-2.3,1.6c5.7,5.7,15,5.7,20.8,0C59.5,76,58.7,75.4,58.1,74.8z"/>
</svg>
